<svg xmlns="http://www.w3.org/2000/svg" viewBox="-2032 8764.001 139.298 80">
  <defs>
    <style>
      .cls-1 {
        fill: #fff;
      }

      .cls-2 {
        fill: #00a770;
      }
    </style>
  </defs>
  <g id="WymerBrownlee-RGB" transform="translate(-2191.7 8593.844)">
    <g id="Group_235" data-name="Group 235" transform="translate(161.35 237.425)">
      <path id="Path_89" data-name="Path 89" class="cls-1" d="M172.9,409.231l-2-7.722h0l-2.063,7.722h-1.474l-2.063-9.4h1.238l1.621,7.987h0l2.093-8.016h1.326l2.092,8.1h0l1.533-8.1h1.208l-1.975,9.4H172.9Z" transform="translate(-165.3 -399.387)"/>
      <path id="Path_90" data-name="Path 90" class="cls-1" d="M204.8,412.107c0-2.446,1.444-3.507,3.154-3.507,1.886,0,2.652,1.238,2.652,2.888a4.764,4.764,0,0,1-.059.884h-4.509c.059,1.709.8,2.24,1.886,2.24a1.409,1.409,0,0,0,1.562-1.179l1.032.236a2.469,2.469,0,0,1-2.652,1.945C205.507,415.585,204.8,413.935,204.8,412.107Zm4.568-.678c0-1.208-.442-1.857-1.5-1.857a1.742,1.742,0,0,0-1.8,1.857Z" transform="translate(-193.158 -405.594)"/>
      <path id="Path_91" data-name="Path 91" class="cls-1" d="M233.887,414.17c0,.354.059.53.413.53a1.3,1.3,0,0,0,.413-.088l.059.737a2.308,2.308,0,0,1-.914.206.923.923,0,0,1-1.032-.8,2.863,2.863,0,0,1-2.151.825,1.729,1.729,0,0,1-1.975-1.8c0-1.768,1.562-2.269,3.448-2.269a3.757,3.757,0,0,1,.589.029V410.9c0-.855-.236-1.356-1.326-1.356-.914,0-1.267.354-1.415,1.09l-1.032-.206c.206-1.238,1-1.827,2.564-1.827,1.65,0,2.387.648,2.387,2.3v3.271Zm-1.149-1.768a4.79,4.79,0,0,0-.678-.029c-.914,0-2.151.088-2.151,1.238,0,.56.206,1.061,1.12,1.061a2.388,2.388,0,0,0,1.709-.766Z" transform="translate(-210.015 -405.594)"/>
      <path id="Path_92" data-name="Path 92" class="cls-1" d="M254.679,408.314H253.5V398.5h1.179Z" transform="translate(-227.506 -398.471)"/>
      <path id="Path_93" data-name="Path 93" class="cls-1" d="M265.968,410.417a3.144,3.144,0,0,1-1.65.442c-1.238,0-1.886-.56-1.886-1.916v-3.979H261.4v-.943h1.032v-1.945l1.179-.177v2.122h1.857v.943H263.64V408.8c0,.707.147,1.09.973,1.09a2.9,2.9,0,0,0,1.179-.324Z" transform="translate(-233.077 -400.868)"/>
      <path id="Path_94" data-name="Path 94" class="cls-1" d="M286.541,408.244h-1.179v-4.362c0-.914-.324-1.444-1.238-1.444a3.482,3.482,0,0,0-1.945.8v4.981H281V398.4h1.179v3.89a3.8,3.8,0,0,1,2.358-.884c1.415,0,2.034.766,2.034,2.3v4.539Z" transform="translate(-246.901 -398.4)"/>
      <path id="Path_95" data-name="Path 95" class="cls-1" d="M314.95,401.776c0,1.149,1.09,1.474,2.24,1.827,1.385.413,2.859.855,2.859,2.653,0,1.975-1.591,2.77-3.33,2.77-1.975,0-3.183-.766-3.419-2.711l1.149-.177a2.06,2.06,0,0,0,2.3,1.886c1,0,2.092-.324,2.092-1.592,0-1.179-1.061-1.474-2.21-1.8-1.385-.383-2.918-.8-2.918-2.741,0-1.621,1.356-2.594,3.183-2.594,1.651,0,2.888.648,3.095,2.652l-1.12.118A1.794,1.794,0,0,0,316.9,400.3C315.481,400.3,314.95,400.95,314.95,401.776Z" transform="translate(-269.681 -399.035)"/>
      <path id="Path_96" data-name="Path 96" class="cls-1" d="M343.768,410.417a3.144,3.144,0,0,1-1.65.442c-1.238,0-1.886-.56-1.886-1.916v-3.979H339.2v-.943h1.032v-1.945l1.179-.177v2.122h1.857v.943H341.41V408.8c0,.707.147,1.09.973,1.09a2.9,2.9,0,0,0,1.179-.324Z" transform="translate(-287.948 -400.868)"/>
      <path id="Path_97" data-name="Path 97" class="cls-1" d="M362.237,409.908a3.009,3.009,0,0,0-2.358.737v4.863H358.7v-6.69h1l.088.973A2.523,2.523,0,0,1,362,408.7h.236Z" transform="translate(-301.701 -405.664)"/>
      <path id="Path_98" data-name="Path 98" class="cls-1" d="M378.787,414.17c0,.354.059.53.413.53a1.3,1.3,0,0,0,.413-.088l.059.737a2.308,2.308,0,0,1-.914.206.923.923,0,0,1-1.031-.8,2.863,2.863,0,0,1-2.151.825,1.729,1.729,0,0,1-1.975-1.8c0-1.768,1.562-2.269,3.448-2.269a3.757,3.757,0,0,1,.589.029V410.9c0-.855-.236-1.356-1.326-1.356-.914,0-1.267.354-1.415,1.09l-1.032-.206c.206-1.238,1-1.827,2.564-1.827,1.65,0,2.387.648,2.387,2.3v3.271Zm-1.179-1.768a4.789,4.789,0,0,0-.678-.029c-.914,0-2.152.088-2.152,1.238,0,.56.206,1.061,1.12,1.061a2.387,2.387,0,0,0,1.709-.766Z" transform="translate(-312.21 -405.594)"/>
      <path id="Path_99" data-name="Path 99" class="cls-1" d="M399.768,410.417a3.144,3.144,0,0,1-1.65.442c-1.238,0-1.886-.56-1.886-1.916v-3.979H395.2v-.943h1.032v-1.945l1.179-.177v2.122h1.857v.943H397.41V408.8c0,.707.147,1.09.973,1.09a2.9,2.9,0,0,0,1.179-.324Z" transform="translate(-327.444 -400.868)"/>
      <path id="Path_100" data-name="Path 100" class="cls-1" d="M412.9,412.107c0-2.446,1.444-3.507,3.154-3.507,1.886,0,2.652,1.238,2.652,2.888a4.759,4.759,0,0,1-.059.884h-4.509c.059,1.709.8,2.24,1.886,2.24a1.409,1.409,0,0,0,1.562-1.179l1.032.236a2.469,2.469,0,0,1-2.652,1.945C413.607,415.585,412.9,413.935,412.9,412.107Zm4.568-.678c0-1.208-.442-1.857-1.5-1.857a1.742,1.742,0,0,0-1.8,1.857Z" transform="translate(-339.927 -405.594)"/>
      <path id="Path_101" data-name="Path 101" class="cls-1" d="M441.01,408.584a1.256,1.256,0,0,1,1.061-.884,1.4,1.4,0,0,1,.589.118v.943a3.488,3.488,0,0,0-1.267.147,2.262,2.262,0,0,1,.5,1.444,2.457,2.457,0,0,1-2.741,2.387,3.884,3.884,0,0,1-1.208-.147c-.177.177-.413.354-.413.619s.147.442.855.5l1.857.118c1.385.088,2.181.442,2.181,1.739,0,1.65-1.768,2.122-3.419,2.122-2.505,0-3.006-.855-3.006-1.65a1.718,1.718,0,0,1,1.091-1.533h0a.966.966,0,0,1-.737-.914c0-.56.413-.943.884-1.326a2.022,2.022,0,0,1-1-1.886c0-1.474,1.09-2.446,2.829-2.446A2.812,2.812,0,0,1,441.01,408.584Zm-.943,6.366-2.181-.118c-.5.324-.737.619-.737,1.061,0,.56.442.943,1.975.943,1.385,0,2.063-.354,2.063-1.061C441.187,415.274,440.981,415.009,440.067,414.95Zm-.973-6.042c-.943,0-1.68.413-1.68,1.444,0,.884.472,1.444,1.65,1.444.973,0,1.65-.5,1.65-1.415C440.715,409.38,440.1,408.908,439.094,408.908Z" transform="translate(-356.219 -404.959)"/>
      <path id="Path_102" data-name="Path 102" class="cls-1" d="M462.525,400.609a.768.768,0,0,1-.825-.855.755.755,0,0,1,.825-.855.855.855,0,1,1,0,1.709Zm.589,7.987h-1.179v-6.69h1.179Z" transform="translate(-374.345 -398.753)"/>
      <path id="Path_103" data-name="Path 103" class="cls-1" d="M471.5,412.107c0-2.446,1.444-3.507,3.154-3.507,1.886,0,2.652,1.238,2.652,2.888a4.764,4.764,0,0,1-.059.884h-4.509c.059,1.709.8,2.24,1.886,2.24a1.409,1.409,0,0,0,1.562-1.179l1.032.236a2.469,2.469,0,0,1-2.653,1.945C472.207,415.585,471.5,413.935,471.5,412.107Zm4.568-.678c0-1.208-.442-1.857-1.5-1.857a1.741,1.741,0,0,0-1.8,1.857Z" transform="translate(-381.256 -405.594)"/>
      <path id="Path_104" data-name="Path 104" class="cls-1" d="M500.158,410.614l-1.061.236c-.147-.766-.413-1.238-1.385-1.238s-1.3.442-1.3.943c0,.678.56.884,1.474,1.09,1.208.265,2.387.5,2.387,2,0,1.267-1,2.034-2.623,2.034-1.532,0-2.446-.589-2.652-1.945l1.061-.295a1.456,1.456,0,0,0,1.65,1.3c.8,0,1.385-.236,1.385-.973s-.56-.884-1.444-1.061c-1.09-.206-2.417-.442-2.417-2,0-1.356,1.12-2,2.476-2A2.112,2.112,0,0,1,500.158,410.614Z" transform="translate(-397.83 -405.662)"/>
    </g>
    <g id="Group_236" data-name="Group 236" transform="translate(159.7 188.236)">
      <path id="Path_105" data-name="Path 105" class="cls-1" d="M172.344,237.836h-.206l-3.478,12.7H164.3L159.7,231.5h3.537l3.419,14.648h.118l3.861-14.648h3.507L178,246.148h.118l3.3-14.648h3.36l-4.568,19.039h-4.362Z" transform="translate(-159.7 -231.5)"/>
      <path id="Path_106" data-name="Path 106" class="cls-1" d="M251.485,266.976l1.8-5.393h-1.356c-1.533-4.8-3.095-9.608-4.627-14.382h3.537c1.12,3.625,2.181,7.28,3.3,10.9h.236c1.12-3.625,2.24-7.309,3.36-10.9h3.448l-6.307,19.776Z" transform="translate(-221.482 -242.573)"/>
      <path id="Path_107" data-name="Path 107" class="cls-1" d="M309.589,260.848v-9.873c0-1.238-.619-1.886-1.975-1.886a7.786,7.786,0,0,0-3.772,1.444v10.345H300.6V246.495h3.036v1.621h.118A9.2,9.2,0,0,1,308.7,246.2a3.692,3.692,0,0,1,3.684,2.093,9.6,9.6,0,0,1,5.3-2.093c2.387,0,4.126,1.267,4.126,4.273v10.433h-3.242v-9.873c0-1.238-.589-1.886-1.945-1.886a8.092,8.092,0,0,0-3.8,1.444v10.345h-3.242Z" transform="translate(-259.074 -241.868)"/>
      <path id="Path_108" data-name="Path 108" class="cls-1" d="M393.891,260.117a18.3,18.3,0,0,1-5.629.914c-4.686,0-7.162-2.328-7.162-7.515,0-5.01,2.564-7.515,6.837-7.515,5.04,0,6.248,3.33,6.248,6.9v1.474h-9.667c.029,2.77,1.68,3.831,4.539,3.831a17.907,17.907,0,0,0,4.863-.884v2.8Zm-3.036-8.075c-.029-1.591-.472-3.478-3.124-3.478a3.185,3.185,0,0,0-3.3,3.478Z" transform="translate(-315.849 -241.727)"/>
      <path id="Path_109" data-name="Path 109" class="cls-1" d="M443.017,250.23a20.525,20.525,0,0,0-5.3,1.8v9.343H434.5V246.988h3.065v2.417c1.562-1,3.183-2.358,5.452-2.505Z" transform="translate(-353.511 -242.361)"/>
      <path id="Path_110" data-name="Path 110" class="cls-1" d="M178.321,321.463a4.959,4.959,0,0,1-2.623,4.362,4.272,4.272,0,0,1,3.36,4.421c0,3.124-2.387,5.334-6.189,5.334H165V316.6h7.545C176.524,316.6,178.321,318.928,178.321,321.463Zm-6.307,3.153a2.874,2.874,0,0,0,3.006-2.77c0-1.444-1.09-2.387-2.977-2.387H168.33v5.158Zm3.625,5.364c0-1.68-1.267-2.535-3.154-2.535H168.36v5.275h4.3C174.7,332.721,175.639,331.542,175.639,329.98Z" transform="translate(-163.438 -291.519)"/>
      <path id="Path_111" data-name="Path 111" class="cls-1" d="M229.717,335.23a20.524,20.524,0,0,0-5.3,1.8v9.343H221.2V331.988h3.065v2.417c1.562-1,3.183-2.358,5.452-2.505Z" transform="translate(-203.075 -302.31)"/>
      <path id="Path_112" data-name="Path 112" class="cls-1" d="M261.121,331.1c3.949,0,7.25,2.21,7.25,7.515s-3.3,7.515-7.25,7.515-7.221-2.151-7.221-7.515C253.9,333.281,257.171,331.1,261.121,331.1Zm.029,12.231c2.741,0,3.861-1.768,3.861-4.745,0-2.947-1.12-4.716-3.861-4.716-2.77,0-3.92,1.768-3.92,4.716C257.2,341.563,258.38,343.331,261.15,343.331Z" transform="translate(-226.137 -301.746)"/>
      <path id="Path_113" data-name="Path 113" class="cls-1" d="M314.342,332.1v9.962c0,1.238.766,1.916,2.269,1.916a6.978,6.978,0,0,0,3.625-1.415,10.994,10.994,0,0,1-.118-1.739V332.1h3.036v9.578c0,1.651,1.208,2.328,2.859,2.328.973,0,2.977-.324,2.977-2.387v-9.49h3.242v9.578c0,3.92-3.036,5.128-6.277,5.128a5.837,5.837,0,0,1-5.04-2.21,7.539,7.539,0,0,1-5.069,2.21c-3.3,0-4.745-1.768-4.745-5.1v-9.608h3.242Z" transform="translate(-266.479 -302.451)"/>
      <path id="Path_114" data-name="Path 114" class="cls-1" d="M402.913,345.877v-9.844A1.666,1.666,0,0,0,401,334.118a9.868,9.868,0,0,0-4.185,1.444v10.315H393.6V331.495h3.006v1.621h.118A10.914,10.914,0,0,1,402,331.2c2.623,0,4.156,1.326,4.156,4.244v10.433Z" transform="translate(-324.665 -301.816)"/>
      <path id="Path_115" data-name="Path 115" class="cls-1" d="M450.113,332.9H446.9V312.8h3.213Z" transform="translate(-362.256 -288.839)"/>
      <path id="Path_116" data-name="Path 116" class="cls-1" d="M479.391,345.117a18.3,18.3,0,0,1-5.629.914c-4.686,0-7.162-2.328-7.162-7.515,0-5.01,2.564-7.515,6.837-7.515,5.04,0,6.248,3.33,6.248,6.9v1.474h-9.667c.03,2.77,1.68,3.831,4.539,3.831a17.91,17.91,0,0,0,4.863-.884v2.8Zm-3.036-8.075c-.029-1.591-.472-3.478-3.124-3.478a3.185,3.185,0,0,0-3.3,3.478Z" transform="translate(-376.15 -301.675)"/>
      <path id="Path_117" data-name="Path 117" class="cls-1" d="M530.491,345.117a18.3,18.3,0,0,1-5.629.914c-4.686,0-7.162-2.328-7.162-7.515,0-5.01,2.564-7.515,6.838-7.515,5.04,0,6.248,3.33,6.248,6.9v1.474h-9.667c.03,2.77,1.68,3.831,4.539,3.831a17.91,17.91,0,0,0,4.863-.884v2.8Zm-3.006-8.075c-.029-1.591-.471-3.478-3.124-3.478a3.185,3.185,0,0,0-3.3,3.478Z" transform="translate(-412.19 -301.675)"/>
    </g>
    <path id="Path_118" data-name="Path 118" class="cls-2" d="M496.191,177.272a1.446,1.446,0,0,0-.855,1.179,1.432,1.432,0,0,0,.589,1.326c2.24,1.65,4.391,3.33,6.543,5.128,1.238-.442,2.505-.855,3.743-1.238-1.827-1.592-3.713-3.124-5.6-4.6a86.126,86.126,0,0,1,19.894-5.246,132.307,132.307,0,0,1-3.743,18.361c0,.029,0,.029-.029.059.914.973,1.8,1.916,2.682,2.918a134.727,134.727,0,0,0,4.716-23.371,1.528,1.528,0,0,0-.413-1.208,1.432,1.432,0,0,0-1.208-.413A90.146,90.146,0,0,0,496.191,177.272Zm37.135,3.743a1.344,1.344,0,0,0-.412-1.179,1.465,1.465,0,0,0-1.179-.413c-2.623.295-5.158.648-7.781,1.09-.206,1.208-.442,2.387-.678,3.537,2.122-.383,4.273-.737,6.4-1a84.666,84.666,0,0,1-5.246,19.894,139.9,139.9,0,0,0-13.469-14.913c-1.238.354-2.476.737-3.714,1.12a128.437,128.437,0,0,1,16.475,18.479,1.435,1.435,0,0,0,2.476-.324A86.5,86.5,0,0,0,533.326,181.015ZM511.87,206.332a87.542,87.542,0,0,0-14.677-14.677,129.849,129.849,0,0,1,20.159-6.4c.265-1.208.53-2.387.766-3.625h0a131.415,131.415,0,0,0-25.287,8.223,1.446,1.446,0,0,0-.295,2.476,82.793,82.793,0,0,1,18.656,18.685,1.446,1.446,0,0,0,2.476-.295c1.385-3.154,2.594-6.219,3.713-9.4-.855-1-1.68-2-2.535-2.947C513.9,201.086,512.931,203.768,511.87,206.332Z" transform="translate(-234.341)"/>
  </g>
</svg>
